<svg width="12" height="7" viewBox="0 0 12 7" fill="none" xmlns="http://www.w3.org/2000/svg">
    <path
        d="M6.35303 1.69749L6.00096 1.34824L5.64883 1.69743L1.11342 6.19501C1.1134 6.19503 1.11338 6.19506 1.11336 6.19508C0.972092 6.33492 0.743978 6.3349 0.602737 6.19501L0.602283 6.19456C0.536875 6.12995 0.500001 6.04171 0.500001 5.9496C0.500001 5.85749 0.536875 5.76925 0.602283 5.70464L0.602942 5.70398L5.74486 0.605518L5.74541 0.604968C5.88613 0.465006 6.11387 0.465006 6.25458 0.604968L6.25515 0.605525L11.3971 5.70378L11.3975 5.70419C11.4632 5.76916 11.5 5.85755 11.5 5.9496C11.5 6.04165 11.4632 6.13004 11.3975 6.19501L11.3974 6.19508C11.2561 6.33491 11.0281 6.33488 10.8869 6.19508C10.8868 6.19505 10.8868 6.19501 10.8868 6.19497C10.8867 6.19496 10.8867 6.19495 10.8867 6.19494L6.35303 1.69749Z"
        fill="currentColor" stroke="#D175B6" />
</svg>
    