<svg width="18" height="20" viewBox="0 0 18 20" fill="none" xmlns="http://www.w3.org/2000/svg">
    <path
        d="M10.6335 18.4139L10.6109 18.4296L10.5892 18.4465C10.2254 18.7301 9.79943 18.9099 9.35437 18.9757C9.09832 19.0082 8.85532 19.0078 8.62252 18.9762C8.17508 18.9108 7.74867 18.7309 7.38591 18.4468L7.36221 18.4283L7.33744 18.4112C7.24902 18.3502 7.18578 18.2812 7.14325 18.2135C7.15235 18.211 7.16172 18.2086 7.17136 18.2063C7.17191 18.2062 7.17257 18.2061 7.17334 18.206C7.18725 18.2042 7.2362 18.1978 7.33489 18.1904C7.44957 18.1818 7.59765 18.1741 7.77229 18.1678C8.12072 18.1551 8.55139 18.1486 8.98619 18.1486C9.42098 18.1486 9.85166 18.1551 10.2001 18.1678C10.3747 18.1741 10.5228 18.1818 10.6375 18.1904C10.7362 18.1978 10.7851 18.2042 10.799 18.206C10.7998 18.2061 10.8005 18.2062 10.801 18.2063C10.8107 18.2086 10.8202 18.2111 10.8293 18.2135C10.7866 18.282 10.7228 18.3518 10.6335 18.4139ZM13.7204 3.23513L13.7227 3.23803C14.3935 4.1019 14.7071 4.93474 14.7071 6.3703V6.79633C14.7071 7.5155 14.8026 8.14302 15.0322 8.73413C15.2609 9.32278 15.6003 9.81769 16.0099 10.296L16.0099 10.2961L16.0191 10.3066C16.3462 10.6779 16.5 11.202 16.5 11.956C16.5 12.598 16.2941 13.1881 15.8909 13.668C15.3064 14.2863 14.4818 14.682 13.6549 14.7504L13.6523 14.7506C12.0869 14.884 10.5493 14.9937 9.0005 14.9937C7.43426 14.9937 5.90202 14.9274 4.37711 14.7534L4.36161 14.7517L4.34607 14.7504C3.51791 14.682 2.69349 14.2861 2.11035 13.6683C1.70649 13.1877 1.5 12.5974 1.5 11.956C1.5 11.2034 1.65423 10.6785 1.98091 10.3065C2.40813 9.82263 2.75141 9.32334 2.97867 8.72941C3.20595 8.13545 3.29392 7.5079 3.29392 6.79633V6.3703C3.29392 4.90751 3.64114 4.03126 4.35405 3.14131C5.44112 1.81448 7.20918 1 8.95577 1H9.04522C10.8349 1 12.6592 1.85827 13.7204 3.23513Z"
        stroke="white" stroke-width="1.5" />
</svg>
    